<?xml version="1.0" encoding="utf-8"?>
<svg xmlns="http://www.w3.org/2000/svg" viewBox="24.9712 30 24.4224 68.4" width="61.285px" height="171.641px">
  <g class="vf-clef" transform="matrix(0.9999999999999999, 0, 0, 0.9999999999999999, 0, 0)">
    <path stroke-width="0.3" fill="#000000" stroke="none" stroke-dasharray="none" d="M25 73.2M39.0544 30.028800000000004C39.112 30.000000000000007,39.1696 30.000000000000007,39.256 30.000000000000007C39.6016 30.000000000000007,40.0048 30.288000000000004,40.580799999999996 31.008000000000003C42.9136 33.686400000000006,44.5552 38.352000000000004,44.5552 42.153600000000004C44.5552 42.44160000000001,44.4976 42.672000000000004,44.4976 42.96000000000001C44.2384 47.4816,42.3952 51.1968,38.7376 54.71040000000001L37.7584 55.6608L37.4128 56.0352L37.4128 56.150400000000005L37.6144 57.0144L37.931200000000004 58.5696L38.248 60.009600000000006C38.68 61.968,38.8528 62.976,38.8528 62.976C38.8528 62.976,38.8528 62.976,38.8528 62.976C38.8528 62.976,38.968 62.976,39.112 62.9472C39.256 62.9472,39.7168 62.8896,40.2064 62.8896C40.552 62.8896,40.8976 62.9472,41.0704 62.9472C45.1312 63.4656,48.270399999999995 66.37440000000001,49.1632 70.464C49.336 71.1264,49.3936 71.8464,49.3936 72.5664C49.3936 76.4544,47.0608 80.1696,43.172799999999995 81.9264C42.9424 82.0704,42.855999999999995 82.0992,42.855999999999995 82.0992L42.855999999999995 82.128C42.855999999999995 82.128,43.028800000000004 82.7904,43.172799999999995 83.53920000000001L43.6048 85.72800000000001L44.007999999999996 87.4848C44.2384 88.608,44.3536 89.4144,44.3536 90.1344C44.3536 90.768,44.2672 91.344,44.1232 92.0064C43.144 96.0096,39.6592 98.4,36.0304 98.4C34.2448 98.4,32.4016 97.824,30.788800000000002 96.528C29.3488 95.3184,28.7152 94.224,28.7152 92.784C28.7152 90.2496,30.759999999999998 88.464,32.8912 88.464C33.64 88.464,34.3888 88.6944,35.1088 89.1264C36.3184 89.9616,36.8656 91.2288,36.8656 92.4672C36.8656 94.368,35.5408 96.24000000000001,33.2656 96.384L33.0352 96.384L33.208 96.4992C34.1584 96.9024,35.1088 97.104,36.0304 97.104C38.3632 97.104,40.552 95.92320000000001,41.8768 93.8784C42.6256 92.7264,43.028800000000004 91.3728,43.028800000000004 90.0192C43.028800000000004 89.5008,42.9424 88.9824,42.827200000000005 88.4064C42.827200000000005 88.3488,42.7408 87.888,42.6256 87.456C41.992000000000004 84.3456,41.617599999999996 82.5312,41.617599999999996 82.5312C41.617599999999996 82.5312,41.617599999999996 82.5312,41.617599999999996 82.5312C41.56 82.5312,41.4448 82.5312,41.3584 82.5888C41.0704 82.6464,40.4656 82.7904,40.2064 82.8192C39.5728 82.9056,38.968 82.9344,38.391999999999996 82.9344C32.7472 82.9344,27.5056 79.1328,25.6912 73.5168C25.2304 72.0192,24.9712 70.5216,24.9712 69.024C24.9712 66.0288,25.9216 63.0912,27.7648 60.470400000000005C29.7808 57.619200000000006,31.7968 55.1712,34.2736 52.63680000000001L35.1376 51.744L34.936 50.6784L34.5616 48.921600000000005L34.072 46.675200000000004C33.928 45.84,33.7552 45.03360000000001,33.7264 44.860800000000005C33.5824 43.9104,33.496 42.988800000000005,33.496 42.0384C33.496 38.409600000000005,34.6768 34.924800000000005,36.8944 32.13120000000001C37.556799999999996 31.267200000000003,38.7376 30.1152,39.0544 30.028800000000004M40.8112 35.7312C40.7536 35.7312,40.6672 35.7312,40.580799999999996 35.7312C39.4 35.7312,37.873599999999996 36.8256,36.8368 38.4384C35.7712 40.022400000000005,35.224000000000004 42.12480000000001,35.224000000000004 44.284800000000004C35.224000000000004 44.860800000000005,35.2528 45.4656,35.3392 46.07040000000001C35.4256 46.50240000000001,35.4544 46.790400000000005,35.684799999999996 47.827200000000005L36.088 49.641600000000004C36.203199999999995 50.1888,36.2896 50.6208,36.2896 50.6784L36.2896 50.6784C36.3184 50.6784,37.2112 49.699200000000005,37.4992 49.3536C40.3792 46.0992,42.1072 42.672000000000004,42.4816 39.648C42.510400000000004 39.36000000000001,42.510400000000004 39.1296,42.510400000000004 38.84160000000001C42.510400000000004 37.948800000000006,42.3952 37.0848,42.1936 36.624C41.9632 36.1632,41.4448 35.7888,40.8112 35.7312M36.4624 57.9936C36.4048 57.5904,36.3184 57.2736,36.3184 57.216C36.3184 57.216,36.3184 57.216,36.2896 57.216C36.232 57.216,34.9936 58.656000000000006,34.129599999999996 59.664C32.6608 61.449600000000004,31.1056 63.5808,30.472 64.61760000000001C29.2624 66.6624,28.6576 68.9376,28.6576 71.184C28.6576 72.6528,28.9456 74.06400000000001,29.464 75.41760000000001C31.019199999999998 79.4208,34.5904 81.9264,38.4784 81.9264C38.9392 81.9264,39.4576 81.8976,39.947199999999995 81.8112C40.580799999999996 81.696,41.3584 81.4656,41.3584 81.3792L41.3584 81.3792C41.3584 81.3792,41.300799999999995 81.0912,41.2144 80.7744L40.3792 76.656L39.7168 73.5744L39.2848 71.4432L38.824 69.3696C38.5936 68.1312,38.5072 67.8144,38.5072 67.8144C38.5072 67.8144,38.5072 67.7856,38.4784 67.7856C38.3056 67.7856,37.384 68.24640000000001,36.9808 68.5344C35.4832 69.5712,34.705600000000004 71.2128,34.705600000000004 72.82560000000001C34.705600000000004 74.352,35.4544 75.8784,36.8944 76.77120000000001C37.2112 76.9728,37.3264 77.1456,37.3264 77.3472C37.3264 77.376,37.3264 77.4624,37.3264 77.4912C37.2688 77.8368,37.0672 77.9808,36.7792 77.9808C36.664 77.9808,36.519999999999996 77.952,36.3472 77.8656C33.6976 76.7136,31.912 73.97760000000001,31.912 70.9824L31.912 70.9824C31.912 67.52640000000001,34.072 64.5312,37.384 63.3504L37.556799999999996 63.2928L37.2688 61.8528L36.4624 57.9936M40.782399999999996 67.61280000000001C40.552 67.584,40.321600000000004 67.584,40.1488 67.584C40.0912 67.584,40.0048 67.584,39.947199999999995 67.584L39.803200000000004 67.584L39.9184 68.1024L40.5232 70.9248L40.8976 72.768L41.300799999999995 74.5824L42.1072 78.5856L42.424 80.11200000000001C42.5392 80.51520000000001,42.5968 80.8608,42.6256 80.8608C42.6256 80.8608,42.6256 80.8608,42.6256 80.8608C42.654399999999995 80.8608,43.144 80.5728,43.4608 80.3424C44.9296 79.3056,46.024 77.6928,46.4272 76.0224C46.571200000000005 75.4752,46.6288 74.89920000000001,46.6288 74.352C46.6288 71.0112,44.152 67.9872,40.782399999999996 67.61280000000001"/>
  </g>
</svg>